<?xml version="1.0" encoding="utf-8"?>
<!-- Generator: Adobe Illustrator 27.3.1, SVG Export Plug-In . SVG Version: 6.00 Build 0)  -->
<svg version="1.1" id="Layer_2_00000065032232631970626980000007521806198834433154_"
	 xmlns="http://www.w3.org/2000/svg" xmlns:xlink="http://www.w3.org/1999/xlink" x="0px" y="0px" viewBox="0 0 411.7 220.2"
	 style="enable-background:new 0 0 411.7 220.2;" xml:space="preserve">
<style type="text/css">
	.st0{opacity:0.22;fill:#FFFFFF;enable-background:new    ;}
	.st1{opacity:0.4;fill:#FFFFFF;enable-background:new    ;}
	.st2{fill:#FFFFFF;}
	.st3{enable-background:new    ;}
	.st4{fill:none;stroke:#FFFFFF;stroke-width:1.5;stroke-linecap:round;stroke-linejoin:round;}
</style>
<g id="Layer_1-2">
	<circle class="st0" cx="307.3" cy="53.6" r="22.2"/>
	<path class="st0" d="M171.6,12.5c0,0-0.5-11.9,14.5-12.3s44.1,0.5,44.1,0.5s13.6-1.4,23.1,13.8S266.6,37,266.6,37s12.2,18.1-0.2,33
		c0,0-5,8.2-11.2,8.2H163c0,0,3.9-18.5,24.4-21.8h56.4c2.2,0,3.6-2.4,2.4-4.3l-14.4-24.4c-0.9-1.6-2.7-2.6-4.6-2.6l-43,0.2
		C184.3,25.4,171.2,26.3,171.6,12.5L171.6,12.5z"/>
	<path class="st0" d="M297.7,142.9c0.3,0,5.6,11.9,21,13s28.9-11.3,28.9-11.3l0.9-1.8L297.7,142.9L297.7,142.9z"/>
	<path class="st0" d="M195.7,142.6l7.5,13.3c0.9,1.6-0.2,3.5-2,3.5h-41.1c-6.7,0-12.2,5.4-12.2,12.2v1.3c0,6.7,5.4,12.1,12.1,12.1
		h45.1c0,0,23.8-2.2,24-28c0,0,0.5-14.4-6.9-14.4H195.7L195.7,142.6z"/>
	<path class="st0" d="M153.1,142.6h-26.6c-1,0-1.9,0.5-2.4,1.4l-33.8,58.4c-1.2,2.1-1.8,4.4-1.6,6.8c0.2,2.8,1.6,6.3,5.8,9
		c5,3.2,9.8,1.9,12.9,0.3c2-1,3.7-2.7,4.8-4.6l41.2-70.7C153.5,142.9,153.3,142.6,153.1,142.6L153.1,142.6z"/>
	<circle class="st1" cx="318" cy="53.6" r="22.2"/>
	<path class="st1" d="M182.3,12.5c0,0-0.5-11.9,14.5-12.3s44.1,0.5,44.1,0.5s13.6-1.4,23.1,13.8c9.6,15.2,13.2,22.4,13.2,22.4
		s12.2,18.1-0.2,33c0,0-5,8.2-11.2,8.2h-92.1c0,0,3.9-18.5,24.4-21.8h56.4c2.2,0,3.5-2.4,2.4-4.3l-14.4-24.4
		c-0.9-1.6-2.7-2.6-4.6-2.6l-43,0.2C194.9,25.4,181.9,26.3,182.3,12.5L182.3,12.5z"/>
	<path class="st1" d="M308.4,142.9c0.3,0,5.6,11.9,21,13s28.9-11.3,28.9-11.3l0.9-1.8L308.4,142.9L308.4,142.9z"/>
	<path class="st1" d="M206.4,142.6l7.5,13.3c0.9,1.6-0.2,3.5-2,3.5h-41.1c-6.7,0-12.2,5.4-12.2,12.2v1.3c0,6.7,5.4,12.1,12.1,12.1
		h45.1c0,0,23.8-2.2,24-28c0,0,0.5-14.4-6.9-14.4H206.4L206.4,142.6z"/>
	<path class="st1" d="M163.7,142.6h-26.6c-1,0-1.9,0.5-2.4,1.4l-33.8,58.4c-1.2,2.1-1.8,4.4-1.6,6.8c0.2,2.8,1.6,6.3,5.8,9
		c5,3.2,9.8,1.9,12.9,0.3c2-1,3.7-2.7,4.8-4.6l41.2-70.7C164.2,142.9,164,142.6,163.7,142.6L163.7,142.6z"/>
	<circle class="st2" cx="331.7" cy="53.5" r="22.2"/>
	<path class="st2" d="M195.9,12.4c0,0-0.5-11.9,14.5-12.3s44.1,0.5,44.1,0.5s13.6-1.4,23.1,13.8s13.2,22.4,13.2,22.4
		s12.2,18.1-0.2,33c0,0-5,8.2-11.2,8.2h-92.1c0,0,3.9-18.5,24.4-21.8h56.4c2.2,0,3.5-2.4,2.4-4.3l-14.4-24.4
		c-0.9-1.6-2.7-2.6-4.6-2.6l-43,0.2C208.6,25.3,195.5,26.2,195.9,12.4L195.9,12.4z"/>
	<path class="st2" d="M322.1,142.7c0.3,0,5.6,11.9,21,13s28.9-11.3,28.9-11.3l0.9-1.8L322.1,142.7L322.1,142.7z"/>
	<path class="st2" d="M220,142.5l7.5,13.3c0.9,1.6-0.2,3.5-2,3.5h-41.1c-6.7,0-12.2,5.4-12.2,12.2v1.3c0,6.7,5.4,12.1,12.1,12.1
		h45.1c0,0,23.8-2.2,24-28c0,0,0.5-14.4-6.9-14.4H220L220,142.5z"/>
	<path class="st2" d="M177.4,142.5h-26.6c-1,0-1.9,0.5-2.4,1.4l-33.8,58.4c-1.2,2.1-1.8,4.4-1.6,6.8c0.2,2.8,1.6,6.3,5.8,9
		c5,3.2,9.8,1.9,13,0.3c2-1,3.7-2.7,4.8-4.6l41.2-70.7C177.9,142.8,177.7,142.5,177.4,142.5L177.4,142.5z"/>
	<g class="st3">
		<path class="st4" d="M142.9,131.5l-8.8-13.1H127v13.1h-9v-41h18.7c4.9,0,8.7,1.2,11.4,3.6c2.7,2.4,4.1,5.7,4.1,9.9v0.1
			c0,3.3-0.8,6-2.4,8.1c-1.6,2.1-3.7,3.6-6.3,4.6l10,14.6H142.9z M143.1,104.6c0-1.9-0.6-3.4-1.9-4.4c-1.2-1-3-1.5-5.2-1.5h-9v11.8
			h9.1c2.2,0,3.9-0.5,5.1-1.6c1.2-1.1,1.8-2.5,1.8-4.2V104.6z"/>
		<path class="st4" d="M194.1,121.8c-0.8,2.3-2,4.2-3.6,5.8c-1.6,1.5-3.5,2.7-5.7,3.5c-2.2,0.8-4.7,1.1-7.4,1.1
			c-5.5,0-9.8-1.5-13-4.6c-3.2-3-4.7-7.6-4.7-13.6V90.6h9v23.2c0,3.4,0.8,5.9,2.3,7.6c1.6,1.7,3.7,2.5,6.5,2.5
			c2.8,0,4.9-0.8,6.5-2.5c1.6-1.6,2.3-4.1,2.3-7.4V90.6h9v23.1C195.4,116.8,195,119.5,194.1,121.8z"/>
		<path class="st4" d="M233.3,131.5l-19.8-26v26h-8.9v-41h8.3l19.2,25.2V90.6h8.9v41H233.3z"/>
		<path class="st4" d="M279.5,131.5l-19.8-26v26h-8.9v-41h8.3l19.2,25.2V90.6h8.9v41H279.5z"/>
		<path class="st4" d="M297,131.5v-41h30.8v8h-21.9v8.3h19.3v8h-19.3v8.6h22.2v8H297z"/>
		<path class="st4" d="M361,131.5l-8.8-13.1h-7.1v13.1h-9v-41h18.7c4.9,0,8.7,1.2,11.4,3.6c2.7,2.4,4.1,5.7,4.1,9.9v0.1
			c0,3.3-0.8,6-2.4,8.1c-1.6,2.1-3.7,3.6-6.3,4.6l10,14.6H361z M361.2,104.6c0-1.9-0.6-3.4-1.9-4.4c-1.2-1-3-1.5-5.2-1.5h-9v11.8
			h9.1c2.2,0,3.9-0.5,5.1-1.6c1.2-1.1,1.8-2.5,1.8-4.2V104.6z"/>
		<path class="st4" d="M407,124.8c-0.7,1.6-1.8,2.9-3.1,4c-1.3,1.1-2.9,1.9-4.7,2.5c-1.8,0.6-3.9,0.8-6.1,0.8
			c-3.1,0-6.2-0.5-9.2-1.6s-5.7-2.7-8.2-4.9l5.3-6.4c1.9,1.5,3.8,2.7,5.8,3.6c2,0.9,4.1,1.3,6.5,1.3c1.9,0,3.3-0.3,4.4-1
			c1-0.7,1.5-1.6,1.5-2.8v-0.1c0-0.6-0.1-1.1-0.3-1.6c-0.2-0.4-0.6-0.9-1.2-1.3c-0.6-0.4-1.4-0.8-2.5-1.2c-1.1-0.4-2.5-0.8-4.2-1.2
			c-2.1-0.5-3.9-1.1-5.6-1.7c-1.7-0.6-3.1-1.4-4.3-2.3c-1.2-0.9-2.1-2.1-2.7-3.4c-0.6-1.4-1-3.1-1-5.1v-0.1c0-1.9,0.3-3.6,1-5.1
			c0.7-1.5,1.7-2.8,2.9-3.9c1.3-1.1,2.8-1.9,4.5-2.5s3.7-0.9,5.8-0.9c3,0,5.8,0.4,8.3,1.3c2.5,0.9,4.8,2.2,6.9,3.9l-4.7,6.8
			c-1.8-1.2-3.6-2.2-5.4-3c-1.8-0.7-3.5-1.1-5.3-1.1s-3.1,0.3-3.9,1c-0.9,0.7-1.3,1.5-1.3,2.5v0.1c0,0.7,0.1,1.2,0.4,1.7
			c0.3,0.5,0.7,0.9,1.4,1.3c0.7,0.4,1.6,0.8,2.7,1.1c1.2,0.4,2.6,0.8,4.4,1.2c2.1,0.5,3.9,1.2,5.5,1.8c1.6,0.7,3,1.5,4.1,2.5
			c1.1,1,2,2.1,2.5,3.4c0.6,1.3,0.9,2.8,0.9,4.6v0.1C408.1,121.4,407.7,123.3,407,124.8z"/>
	</g>
	<g>
		<path class="st2" d="M85.8,66.9c0,0.1-0.1,0.2-0.2,0.2c-4.5,3.1-9,6.2-13.5,9.4c-5.3,3.7-10.7,7.4-16.1,11.2
			c-0.2,0.1-0.2,0.3-0.2,0.5c0,2.9,0,5.9,0,8.8c0,0.1,0.1,0.3-0.1,0.3c-0.1,0.1-0.2-0.1-0.3-0.2c-2.9-2-5.7-4-8.6-6
			c-0.2-0.1-0.3-0.3-0.3-0.5c0-0.8,0-1.7,0-2.5c0-0.2-0.1-0.3-0.2-0.4c-3.8-2.7-7.7-5.3-11.5-8c-4.7-3.3-9.4-6.5-14.1-9.8
			c-1.3-0.9-2.6-1.8-4-2.8c-0.1-0.1-0.2-0.1-0.2-0.2c2.9,0,5.8,0,8.6,0c0.1,0,0.1,0,0.2,0c1.6,0.1,3.1,0.5,4.5,1.3
			c0.8,0.4,1.5,1,2.2,1.5c0.2,0.1,0.3,0.1,0.5-0.1c0.9-1.3,2.2-2.2,3.8-2.6c0.3-0.1,0.7-0.1,1.1-0.2c2,0,4.1,0,6.1,0
			c-0.2,0.4-0.4,0.7-0.6,1c-0.5,0.7-1,1.4-1.4,2.1c-0.8,1.4-0.5,3.6,1.2,4.7c2.8,1.9,5.6,3.9,8.4,5.8c0.2,0.1,0.3,0.1,0.5,0
			c1.2-0.8,2.3-1.6,3.5-2.4c1.7-1.2,3.4-2.3,5-3.5c1.6-1.1,1.9-3.3,0.8-4.9c-0.4-0.6-0.8-1.2-1.3-1.8c-0.2-0.3-0.5-0.6-0.6-0.9H65
			c0.2,0.1,0.3,0,0.5,0.1c1.8,0.3,3.3,1.2,4.3,2.7c0.1,0.2,0.2,0.2,0.4,0.1c0.4-0.3,0.8-0.6,1.3-0.9c1.2-0.9,2.6-1.4,4.1-1.7
			c0.5-0.1,1-0.1,1.5-0.2L85.8,66.9L85.8,66.9z"/>
		<path class="st2" d="M20.9,92.7c0,0.2,0,0.2,0,0.3c0,1.9,0,3.9,0,5.8c0,2.1,0.8,4,2.2,5.6c0.2,0.3,0.4,0.5,0.7,0.7
			c0.2,0.1,0.2,0.2,0,0.4c-1.2,1.1-2,2.3-2.5,3.9c-0.3,0.8-0.4,1.7-0.4,2.5c0,3.2,0,6.5,0,9.8c0,2.6,1.1,4.7,3.1,6.3
			c0.3,0.2,0.3,0.2,0,0.4c-2.8,1.9-5.5,3.9-8.3,5.8c-0.3,0.2-0.4,0.2-0.7,0c-2.5-1.7-5-3.5-7.5-5.2c-0.3-0.2-0.3-0.2,0-0.4
			c2.2-2.1,3.5-4.7,4-7.7c0.1-0.6,0.1-1.1,0.1-1.7c0-2.3,0-4.6,0-7c0-2.2,0.7-4.2,2.1-5.8c0.3-0.3,0.6-0.6,0.9-0.9
			c0.1-0.1,0.1-0.2,0-0.3c-1.7-1.6-2.7-3.5-2.9-5.8c0-0.4,0-0.8,0-1.2c0-3.6,0-7.2,0-10.8c0-3-1-5.6-2.8-8c-0.4-0.5-0.8-0.9-1.2-1.3
			c-0.1-0.1-0.2-0.1-0.2-0.2c0.1-0.1,0.2-0.1,0.3-0.1c1.7,0,3.4,0,5.1,0c1.4,0,2.9,0,4.3,0c0.2,0,0.4,0.1,0.5,0.2
			c4.1,2.9,8.2,5.7,12.4,8.6c5.9,4.1,11.7,8.2,17.6,12.2c3.7,2.6,7.5,5.2,11.2,7.8c1.6,1.1,3.3,2.3,4.9,3.4c0.1,0.1,0.2,0.2,0.2,0.1
			c0.1-0.1,0.1-0.2,0.1-0.3c0-5.4,0-10.9,0-16.3c0-0.3,0-0.6,0-0.9c0-0.2,0.1-0.3,0.2-0.4c1.5-1,3-2.1,4.5-3.1
			c1.4-0.9,2.7-1.9,4.1-2.8c0.1-0.1,0.3-0.3,0.4-0.2c0.1,0.1,0.1,0.3,0.1,0.5c0,4,0,7.9,0,11.9c0,2.7-0.9,4.9-2.8,6.8
			c-0.3,0.3-0.3,0.3,0,0.6c1.6,1.6,2.6,3.6,2.8,5.9c0.1,1.5,0,3.1,0,4.6c0,0.3,0.1,0.4,0.3,0.6c2.5,1.7,5,3.5,7.5,5.2
			c0.1,0.1,0.2,0.2,0.4,0.2c0.1-0.1,0-0.2,0-0.4c0-3.2,0-6.4,0-9.5c0-2.6-0.9-4.8-2.9-6.6c-0.2-0.2-0.2-0.2,0-0.4
			c1.5-1.4,2.4-3.1,2.8-5c0.1-0.5,0.1-1,0.1-1.5c0-3.2,0-6.4,0-9.6c0-2.6-1.1-4.7-3.1-6.3c-0.3-0.2-0.3-0.2,0-0.4
			c2.1-1.5,4.2-2.9,6.4-4.4c0.2-0.1,0.3-0.2,0.5-0.2c3.2,0,6.3,0,9.5,0c0.1,0,0.2,0,0.2,0.1c0.1,0.1-0.1,0.2-0.1,0.2
			c-2,1.9-3.3,4.3-3.8,7c-0.2,0.8-0.2,1.6-0.2,2.4c0,3.8,0,7.6,0,11.4c0,2.6-1,4.8-2.9,6.5c-0.2,0.2-0.1,0.2,0,0.4
			c1.2,1.1,2,2.3,2.4,3.8c0.3,0.9,0.4,1.8,0.4,2.8c0,2.5,0,4.9,0,7.4c0,2.3,0.7,4.4,1.9,6.4c0.6,1,1.3,1.9,2.2,2.8
			c0.2,0.1,0.2,0.2,0,0.4c-1.9,1.3-3.7,2.6-5.6,3.9c-0.1,0.1-0.3,0.1-0.4,0.1c-3.2,0-6.5,0-9.7,0c-0.2,0-0.3-0.1-0.4-0.1
			c-2.7-1.9-5.4-3.8-8.1-5.6c-2.5-1.8-5-3.5-7.5-5.3c-2.3-1.6-4.6-3.2-6.9-4.8c0,0-0.1-0.1-0.2-0.1c-0.1-0.1-0.1,0-0.1,0.1
			c0,0,0,0.1,0,0.1c0,3.8,0,7.5,0,11.3c0,1.4,0.5,2.6,1.4,3.6c0.7,0.7,1.4,1.3,2.2,1.9c0.2,0.1,0.2,0.2,0,0.4
			c-2.7,2-5.4,3.9-8.1,5.9c-0.2,0.1-0.3,0.1-0.4,0c-2.7-2-5.3-3.9-8-5.9c-0.3-0.2-0.3-0.2,0-0.4c0.7-0.6,1.4-1.1,2-1.8
			c1-1,1.6-2.3,1.6-3.8c0-3.9,0-7.7,0-11.6c0-2,0-4,0-6c0-0.2-0.1-0.4-0.3-0.5c-6.1-4.2-12.1-8.4-18.2-12.7
			c-2.3-1.6-4.6-3.2-6.9-4.8C21.1,92.8,21,92.8,20.9,92.7L20.9,92.7z"/>
		<path class="st2" d="M38.3,127.5c0,5.1,0,10.3,0,15.4c0,0.3,0.1,0.4,0.4,0.4c2,0,4.1,0,6.1,0c2.5,0,4.4,1.1,5.9,3.1
			c0.1,0.2,0.2,0.3,0.3,0.5c0.1,0.2,0.2,0.2,0.3,0c0.4-0.6,0.8-1.1,1.2-1.6c1.3-1.3,2.9-1.9,4.7-1.9c2.1,0,4.2,0,6.3,0
			c0.3,0,0.4,0,0.4-0.4c0-4.3,0-8.6,0-12.9c0-0.1-0.1-0.3,0.1-0.3c0.1-0.1,0.2,0.1,0.3,0.1c2.7,1.9,5.4,3.8,8.2,5.7
			c0.3,0.2,0.3,0.4,0.3,0.7c-0.9,4-2.6,7.6-5.4,10.6c-3.3,3.6-7.3,5.9-12.1,6.8c-1.7,0.3-3.3,0.5-5,0.4c-5.1-0.2-9.6-2-13.4-5.3
			c-2.2-1.9-3.9-4.1-5.2-6.6c-1.2-2.4-2-5-2.4-7.6c-0.1-1-0.2-0.7,0.6-1.3c1.4-1,2.8-2.1,4.2-3.1c0.2-0.1,0.2-0.2,0-0.3
			c-0.8-0.7-1.6-1.4-2.3-2.2c-1-1.1-1.9-2.2-2.3-3.6c-0.2-0.7-0.3-1.4-0.3-2.1c0-5.3,0-10.7,0-16c0,0,0-0.1,0-0.1
			c0-0.2,0.1-0.2,0.2-0.1c0.5,0.3,1,0.7,1.5,1c2.4,1.7,4.8,3.3,7.2,5c0.3,0.2,0.4,0.4,0.4,0.7C38.3,117.3,38.3,122.4,38.3,127.5
			L38.3,127.5z"/>
	</g>
	<rect y="9.8" class="st1" width="157" height="6.1"/>
	<rect y="34.5" class="st1" width="221.4" height="6.1"/>
	<rect x="104.9" y="59.2" class="st1" width="46.6" height="6.1"/>
	<rect y="182" class="st1" width="88.8" height="6.1"/>
	<rect y="205.5" class="st1" width="79.8" height="6.1"/>
</g>
</svg>
